<mxfile host="app.diagrams.net" modified="2023-05-29T10:25:15.614Z" agent="Mozilla/5.0 (X11; Ubuntu; Linux x86_64; rv:109.0) Gecko/20100101 Firefox/113.0" etag="V0qfdf5jvDW4dmwQyraK" version="21.3.5" type="github">
  <diagram name="Page-1" id="822b0af5-4adb-64df-f703-e8dfc1f81529">
    <mxGraphModel dx="1469" dy="766" grid="1" gridSize="10" guides="1" tooltips="1" connect="1" arrows="1" fold="1" page="1" pageScale="1" pageWidth="1100" pageHeight="850" background="none" math="0" shadow="0">
      <root>
        <mxCell id="0" />
        <mxCell id="1" parent="0" />
        <mxCell id="mrwzOTIXYfHaTWeU76AP-1" value="" style="image;html=1;image=img/lib/clip_art/networking/Wireless_Router_128x128.png" vertex="1" parent="1">
          <mxGeometry x="300" y="250" width="140" height="90" as="geometry" />
        </mxCell>
        <mxCell id="mrwzOTIXYfHaTWeU76AP-7" value="" style="image;aspect=fixed;perimeter=ellipsePerimeter;html=1;align=center;shadow=0;dashed=0;spacingTop=3;image=img/lib/active_directory/internet_cloud.svg;" vertex="1" parent="1">
          <mxGeometry x="520" y="70" width="142.85" height="90" as="geometry" />
        </mxCell>
        <mxCell id="mrwzOTIXYfHaTWeU76AP-10" value="" style="verticalLabelPosition=bottom;sketch=0;aspect=fixed;html=1;verticalAlign=top;strokeColor=none;align=center;outlineConnect=0;shape=mxgraph.citrix.cell_phone;" vertex="1" parent="1">
          <mxGeometry x="80.41" y="440" width="29.17" height="70" as="geometry" />
        </mxCell>
        <mxCell id="mrwzOTIXYfHaTWeU76AP-11" value="" style="image;html=1;image=img/lib/clip_art/computers/Laptop_128x128.png" vertex="1" parent="1">
          <mxGeometry x="70" y="295" width="90" height="90" as="geometry" />
        </mxCell>
        <mxCell id="mrwzOTIXYfHaTWeU76AP-12" value="" style="image;points=[];aspect=fixed;html=1;align=center;shadow=0;dashed=0;image=img/lib/allied_telesis/computer_and_terminals/Personal_Computer_with_Server.svg;" vertex="1" parent="1">
          <mxGeometry x="320" y="540" width="80" height="80" as="geometry" />
        </mxCell>
        <mxCell id="mrwzOTIXYfHaTWeU76AP-13" value="" style="image;html=1;image=img/lib/clip_art/computers/Laptop_128x128.png;direction=east;" vertex="1" parent="1">
          <mxGeometry x="810" y="280" width="90" height="90" as="geometry" />
        </mxCell>
        <mxCell id="mrwzOTIXYfHaTWeU76AP-17" value="" style="endArrow=classic;html=1;rounded=0;exitX=0.75;exitY=0;exitDx=0;exitDy=0;" edge="1" parent="1" source="mrwzOTIXYfHaTWeU76AP-36" target="mrwzOTIXYfHaTWeU76AP-7">
          <mxGeometry relative="1" as="geometry">
            <mxPoint x="530" y="350" as="sourcePoint" />
            <mxPoint x="630" y="350" as="targetPoint" />
          </mxGeometry>
        </mxCell>
        <mxCell id="mrwzOTIXYfHaTWeU76AP-18" value="" style="shape=message;html=1;outlineConnect=0;" vertex="1" parent="mrwzOTIXYfHaTWeU76AP-17">
          <mxGeometry width="20" height="14" relative="1" as="geometry">
            <mxPoint x="-10" y="-7" as="offset" />
          </mxGeometry>
        </mxCell>
        <mxCell id="mrwzOTIXYfHaTWeU76AP-19" value="" style="endArrow=classic;html=1;rounded=0;exitX=1;exitY=0.75;exitDx=0;exitDy=0;" edge="1" parent="1" source="mrwzOTIXYfHaTWeU76AP-7" target="mrwzOTIXYfHaTWeU76AP-13">
          <mxGeometry relative="1" as="geometry">
            <mxPoint x="530" y="350" as="sourcePoint" />
            <mxPoint x="630" y="350" as="targetPoint" />
          </mxGeometry>
        </mxCell>
        <mxCell id="mrwzOTIXYfHaTWeU76AP-20" value="" style="shape=message;html=1;outlineConnect=0;" vertex="1" parent="mrwzOTIXYfHaTWeU76AP-19">
          <mxGeometry width="20" height="14" relative="1" as="geometry">
            <mxPoint x="-10" y="-7" as="offset" />
          </mxGeometry>
        </mxCell>
        <mxCell id="mrwzOTIXYfHaTWeU76AP-22" value="" style="endArrow=classic;startArrow=classic;html=1;rounded=0;" edge="1" parent="1" source="mrwzOTIXYfHaTWeU76AP-11" target="mrwzOTIXYfHaTWeU76AP-1">
          <mxGeometry width="50" height="50" relative="1" as="geometry">
            <mxPoint x="550" y="400" as="sourcePoint" />
            <mxPoint x="600" y="350" as="targetPoint" />
          </mxGeometry>
        </mxCell>
        <mxCell id="mrwzOTIXYfHaTWeU76AP-24" value="" style="endArrow=classic;startArrow=classic;html=1;rounded=0;" edge="1" parent="1" source="mrwzOTIXYfHaTWeU76AP-10" target="mrwzOTIXYfHaTWeU76AP-1">
          <mxGeometry width="50" height="50" relative="1" as="geometry">
            <mxPoint x="180" y="249" as="sourcePoint" />
            <mxPoint x="250" y="287" as="targetPoint" />
          </mxGeometry>
        </mxCell>
        <mxCell id="mrwzOTIXYfHaTWeU76AP-25" value="" style="endArrow=classic;startArrow=classic;html=1;rounded=0;" edge="1" parent="1" source="mrwzOTIXYfHaTWeU76AP-12" target="mrwzOTIXYfHaTWeU76AP-1">
          <mxGeometry width="50" height="50" relative="1" as="geometry">
            <mxPoint x="170" y="425" as="sourcePoint" />
            <mxPoint x="253" y="370" as="targetPoint" />
          </mxGeometry>
        </mxCell>
        <mxCell id="mrwzOTIXYfHaTWeU76AP-26" value="&lt;div&gt;&lt;font style=&quot;font-size: 14px;&quot;&gt;Compromised &lt;br&gt;&lt;/font&gt;&lt;/div&gt;&lt;div&gt;&lt;font size=&quot;3&quot;&gt;Router&lt;/font&gt;&lt;/div&gt;" style="text;html=1;strokeColor=none;fillColor=none;align=center;verticalAlign=middle;whiteSpace=wrap;rounded=0;" vertex="1" parent="1">
          <mxGeometry x="410" y="290" width="100" height="30" as="geometry" />
        </mxCell>
        <mxCell id="mrwzOTIXYfHaTWeU76AP-28" value="&lt;font style=&quot;font-size: 14px;&quot;&gt;Telegram report&lt;/font&gt;" style="text;html=1;strokeColor=none;fillColor=none;align=center;verticalAlign=middle;whiteSpace=wrap;rounded=0;" vertex="1" parent="1">
          <mxGeometry x="420" y="150" width="60" height="40" as="geometry" />
        </mxCell>
        <mxCell id="mrwzOTIXYfHaTWeU76AP-29" value="&lt;font style=&quot;font-size: 14px;&quot;&gt;Attacker&lt;/font&gt;" style="text;html=1;strokeColor=none;fillColor=none;align=center;verticalAlign=middle;whiteSpace=wrap;rounded=0;" vertex="1" parent="1">
          <mxGeometry x="880" y="290" width="60" height="30" as="geometry" />
        </mxCell>
        <mxCell id="mrwzOTIXYfHaTWeU76AP-35" value="" style="shape=partialRectangle;whiteSpace=wrap;html=1;left=0;right=0;fillColor=none;" vertex="1" parent="1">
          <mxGeometry x="40" y="250" width="510" height="380" as="geometry" />
        </mxCell>
        <mxCell id="mrwzOTIXYfHaTWeU76AP-36" value="" style="shape=partialRectangle;whiteSpace=wrap;html=1;bottom=0;top=0;fillColor=none;" vertex="1" parent="1">
          <mxGeometry x="40" y="250" width="510" height="380" as="geometry" />
        </mxCell>
        <mxCell id="mrwzOTIXYfHaTWeU76AP-37" value="" style="image;points=[];aspect=fixed;html=1;align=center;shadow=0;dashed=0;image=img/lib/allied_telesis/computer_and_terminals/Personal_Computer_with_Server.svg;" vertex="1" parent="1">
          <mxGeometry x="440" y="540" width="80" height="80" as="geometry" />
        </mxCell>
        <mxCell id="mrwzOTIXYfHaTWeU76AP-38" value="" style="endArrow=classic;startArrow=classic;html=1;rounded=0;" edge="1" parent="1" source="mrwzOTIXYfHaTWeU76AP-37" target="mrwzOTIXYfHaTWeU76AP-1">
          <mxGeometry width="50" height="50" relative="1" as="geometry">
            <mxPoint x="343" y="500" as="sourcePoint" />
            <mxPoint x="372" y="350" as="targetPoint" />
          </mxGeometry>
        </mxCell>
        <mxCell id="mrwzOTIXYfHaTWeU76AP-39" value="" style="image;points=[];aspect=fixed;html=1;align=center;shadow=0;dashed=0;image=img/lib/allied_telesis/computer_and_terminals/Personal_Computer_with_Server.svg;" vertex="1" parent="1">
          <mxGeometry x="200" y="540" width="80" height="80" as="geometry" />
        </mxCell>
        <mxCell id="mrwzOTIXYfHaTWeU76AP-40" value="" style="endArrow=classic;startArrow=classic;html=1;rounded=0;" edge="1" parent="1" source="mrwzOTIXYfHaTWeU76AP-39" target="mrwzOTIXYfHaTWeU76AP-1">
          <mxGeometry width="50" height="50" relative="1" as="geometry">
            <mxPoint x="285" y="560" as="sourcePoint" />
            <mxPoint x="363" y="350" as="targetPoint" />
          </mxGeometry>
        </mxCell>
        <mxCell id="mrwzOTIXYfHaTWeU76AP-41" value="&lt;font style=&quot;font-size: 14px;&quot;&gt;Telegram report&lt;/font&gt;" style="text;html=1;strokeColor=none;fillColor=none;align=center;verticalAlign=middle;whiteSpace=wrap;rounded=0;" vertex="1" parent="1">
          <mxGeometry x="730" y="160" width="60" height="40" as="geometry" />
        </mxCell>
        <mxCell id="mrwzOTIXYfHaTWeU76AP-42" value="&lt;font style=&quot;font-size: 14px;&quot;&gt;Victim Network&lt;/font&gt;" style="text;html=1;strokeColor=none;fillColor=none;align=center;verticalAlign=middle;whiteSpace=wrap;rounded=0;" vertex="1" parent="1">
          <mxGeometry x="550" y="500" width="70" height="50" as="geometry" />
        </mxCell>
      </root>
    </mxGraphModel>
  </diagram>
</mxfile>
